<?xml version="1.0" standalone="no"?><!DOCTYPE svg PUBLIC "-//W3C//DTD SVG 1.1//EN" "http://www.w3.org/Graphics/SVG/1.1/DTD/svg11.dtd"><svg t="1605519275364" class="icon" viewBox="0 0 1024 1024" version="1.1" xmlns="http://www.w3.org/2000/svg" p-id="8702" xmlns:xlink="http://www.w3.org/1999/xlink" width="128" height="128"><defs><style type="text/css"></style></defs><path d="M919.765057 148.83424599h-40.26679901a523.978099 523.978099 0 0 1-185.02339499-41.79591799A881.791936 881.791936 0 0 1 579.790941 47.402688c-20.388253-12.74265801-35.169736-22.936784-43.325038-29.05326L523.213539 8.665007 512 0l-24.465903 18.349428c-8.155301 6.116476-22.936784 16.31060201-43.325038 29.05326a877.204579 877.204579 0 0 1-114.683922 59.125933 522.44898 522.44898 0 0 1-184.513689 41.795919H104.234943v430.192135c0 203.882529 250.265804 444.463912 407.765057 444.463912s407.765057-242.620209 407.765057-444.463912zM512 973.029368c-132.523644 0-356.794425-223.761075-356.794425-393.49328V198.785465A591.769039 591.769039 0 0 0 349.403683 152.911896a927.155799 927.155799 0 0 0 121.310105-62.184171c17.839721-10.70383299 31.601792-20.388253 41.286212-27.01443499 9.17471401 6.62618201 23.446491 15.800896 41.286212 27.01443499A930.214037 930.214037 0 0 0 674.596317 152.911896a593.807865 593.807865 0 0 0 194.198108 45.873569v380.240916c0 170.241911-224.270781 394.002987-356.794425 394.002987z" fill="#E63939" p-id="8703"></path><path d="M755.63962199 294.61025399h-14.27177699a359.342957 359.342957 0 0 1-115.70333501-24.97560999 509.70632202 509.70632202 0 0 1-98.88302699-50.970632l-8.665007-6.116476a11.213539 11.213539 0 0 0-6.62618199 0 11.213539 11.213539 0 0 0-6.62618301 0l-8.665007 6.116476a509.70632202 509.70632202 0 0 1-98.88302599 50.970632 356.794425 356.794425 0 0 1-115.70333501 24.97560999h-13.762071A11.213539 11.213539 0 0 0 257.146839 305.823793v247.717272c0 129.46540599 165.654555 266.57640601 254.853161 266.576406s254.853161-137.111 254.853161-266.576406V305.823793a11.213539 11.213539 0 0 0-11.21353901-11.21353901z m-98.37332 158.51866601l-172.79044299 155.97013401a28.54355401 28.54355401 0 0 1-37.718268-3e-8l-80.02389301-71.86859098a22.42707801 22.42707801 0 0 1 0-34.150324 28.54355401 28.54355401 0 0 1 37.718268 0L465.616725 560.67695401l152.911896-139.14982601a28.54355401 28.54355401 0 0 1 37.718268 0 22.42707801 22.42707801 0 0 1 1.01941301 31.601792z" fill="#E63939" fill-opacity=".1" p-id="8704"></path><path d="M619.54803401 418.978596L465.616725 560.67695401l-61.16475899-57.59681501a28.54355401 28.54355401 0 0 0-37.718268 0 22.42707801 22.42707801 0 0 0 0 34.150324l80.02389299 71.86859101a28.54355401 28.54355401 0 0 0 37.718268-3e-8l172.79044301-155.97013398a22.42707801 22.42707801 0 0 0 0-34.150324 28.54355401 28.54355401 0 0 0-37.718268 0z" fill="#E63939" p-id="8705"></path></svg>